<svg xmlns="http://www.w3.org/2000/svg" viewBox="0 0 600 600" role="img" aria-label="Printer">
  <defs>
    <linearGradient id="prBody" x1="0" y1="0" x2="0" y2="1">
      <stop offset="0" stop-color="#9bdcd8"/>
      <stop offset="1" stop-color="#5ab8b3"/>
    </linearGradient>
    <linearGradient id="prTray" x1="0" y1="0" x2="0" y2="1">
      <stop offset="0" stop-color="#ffffff"/>
      <stop offset="1" stop-color="#e8f7f5"/>
    </linearGradient>
  </defs>

  <ellipse cx="300" cy="565" rx="200" ry="22" fill="#000000" opacity="0.1"/>

  <rect x="140" y="380" width="320" height="30" rx="15" fill="#ffffff"/>
  <rect x="120" y="395" width="70" height="14" rx="7" fill="#3d8f8b"/>
  <rect x="410" y="395" width="70" height="14" rx="7" fill="#3d8f8b"/>

  <rect x="140" y="150" width="320" height="260" rx="24" fill="url(#prBody)" stroke="#3d8f8b" stroke-width="7"/>
  <rect x="140" y="150" width="320" height="120" rx="24" fill="#ffffff" opacity="0.2"/>

  <rect x="175" y="185" width="250" height="80" rx="12" fill="url(#prTray)" stroke="#bce3e0" stroke-width="4"/>
  <rect x="195" y="200" width="210" height="10" rx="5" fill="#9bdcd8"/>
  <rect x="195" y="220" width="210" height="10" rx="5" fill="#9bdcd8"/>
  <rect x="195" y="240" width="160" height="10" rx="5" fill="#9bdcd8"/>

  <g fill="#3d8f8b">
    <circle cx="185" cy="340" r="9"/>
    <circle cx="415" cy="340" r="9"/>
  </g>
  <rect x="205" y="328" width="190" height="24" rx="8" fill="#d8f2f0"/>
  <rect x="420" y="300" width="30" height="12" rx="6" fill="#2fd26b"/>
</svg>
